<svg xmlns="http://www.w3.org/2000/svg">
    <defs>
        <symbol id="simples" viewBox="0 0 16 16"><path fill="#60646b" d="M16 7.1C16 5.6 14.6 5 13.8 5h-2.2c.4-1 .7-2.2.5-3.1C11.6.1 10.1 0 9.6 0h-.1c-.4 0-.6.2-.8.5l-1 2.8L5 6H0v9h5v-1c.2 0 .7.3 1.2.6 1.2.6 2.9 1.5 4.5 1.5 2.4 0 3.2-.3 3.8-1.3.3-.6.3-1.1.3-1.4.2-.2.5-.5.6-1s.1-.8 0-1.1c.2-.3.4-.7.5-1.3 0-.5-.1-.9-.2-1.2.1-.4.3-.9.3-1.7zM2.5 13.5c-.6 0-1-.4-1-1s.4-1 1-1 1 .4 1 1-.4 1-1 1zm12.2-4.4s.2.2.2.7c0 .6-.4.9-.4.9l-.3.3.2.3s.2.3 0 .7c-.1.4-.5.7-.5.7l-.3.3.2.4s.2.4-.1.9c-.2.4-.4.7-2.9.7-1.4 0-3-.8-4.1-1.4-.8-.4-1.3-.6-1.7-.6V7h.1c.2 0 .4-.1.6-.2L8.5 4c.1-.1.1-.2.2-.3l1-2.7c.5 0 1.2.2 1.4 1.1.1.6-.1 1.6-.6 2.8-.1.3-.1.5.1.8.1.2.4.3.7.3h2.5c.1 0 1.2.2 1.2 1.1 0 .8-.3 1.2-.3 1.2l-.3.4.3.4z"/></symbol>
        <symbol id="para-voce" viewBox="0 0 512 512"><path d="M340.6 209.05v37.7c0 7.1 2.8 13.7 7.6 18.7v12.8c0 5.5 4.4 9.9 9.9 9.9s9.9-4.4 9.9-9.9v-17.4c0-3.3-1.7-6.4-4.4-8.2-2-1.3-3.2-3.5-3.2-5.9v-37.7c0-13.2 10.8-24 24-24h8.1c13.2 0 24 10.8 24 24v37.7c0 2.4-1.2 4.6-3.2 5.9-2.8 1.8-4.4 4.9-4.4 8.2v36.3c0 4.4 2.6 8.5 6.5 10.4 4.7 2.3 29.1 14.6 51.7 33.1 1.9 1.6 3 3.9 3 6.5v15.9h-69.4c-5.5 0-9.9 4.4-9.9 9.9s4.4 9.9 9.9 9.9H480c5.5 0 9.9-4.4 9.9-9.9v-25.8c0-8.5-3.7-16.4-10.3-21.8-19.9-16.3-41.2-28.2-50.9-33.3v-26.7c4.8-5 7.6-11.6 7.6-18.7v-37.7c0-24.2-19.7-43.8-43.8-43.8h-8.1c-24.1.1-43.8 19.7-43.8 43.9zM9.9 382.85h80.5c5.5 0 9.9-4.4 9.9-9.9s-4.4-9.9-9.9-9.9H19.8v-15.9c0-2.5 1.1-4.9 3-6.5 22.5-18.5 47-30.9 51.7-33.1 4-1.9 6.5-6 6.5-10.4v-36.3c0-3.3-1.7-6.4-4.4-8.2-2-1.3-3.2-3.5-3.2-5.9v-37.7c0-13.2 10.8-24 24-24h8.1c13.2 0 24 10.8 24 24v37.7c0 2.4-1.2 4.6-3.2 5.9-2.8 1.8-4.4 4.9-4.4 8.2v18.2c0 5.5 4.4 9.9 9.9 9.9s9.9-4.4 9.9-9.9v-13.6c4.8-5 7.6-11.6 7.6-18.7v-37.7c0-24.2-19.7-43.8-43.8-43.8h-8.1c-24.2 0-43.8 19.7-43.8 43.8v37.7c0 7.1 2.8 13.7 7.6 18.7v26.7c-9.8 5.1-31 16.9-50.9 33.3-6.5 5.4-10.3 13.3-10.3 21.8v25.7c0 5.5 4.4 9.9 9.9 9.9z" fill="#60646b"/><path d="M304.4 209.55v-48.7c0-29.7-24.1-53.8-53.8-53.8h-10.5c-29.7 0-53.8 24.1-53.8 53.8v48.7c0 8.8 3.6 17 9.8 23v37.5c-11.7 6-40.3 21.6-67 43.6-7.8 6.4-12.2 15.8-12.2 25.9v33.4c0 5.5 4.4 9.9 9.9 9.9h237c5.5 0 9.9-4.4 9.9-9.9v-33.4c0-10.1-4.4-19.5-12.2-25.9-26.7-21.9-55.3-37.6-67-43.6v-37.5c6.3-5.9 9.9-14.2 9.9-23zm44.6 119.4c3.2 2.6 5 6.5 5 10.6v23.5H136.8v-23.5c0-4.1 1.8-8 5-10.6 29.4-24.2 61.3-40.3 67.4-43.3 4.1-2 6.8-6.3 6.8-10.8v-47c0-3.3-1.7-6.4-4.4-8.2-3.4-2.3-5.4-6-5.4-10v-48.7c0-18.8 15.3-34 34-34h10.5c18.8 0 34 15.3 34 34v48.7c0 4-2 7.8-5.4 10-2.8 1.8-4.4 4.9-4.4 8.2v47c0 4.6 2.7 8.8 6.8 10.8 6 3 37.9 19.2 67.3 43.3z" fill="#3C92CA"/></symbol>
        <symbol id="seguro" viewBox="0 0 512 512"><path d="M458.666 90.665c-33.292 0-58.558-19.484-85.312-40.11C342.62 26.86 307.784 0 256 0s-86.62 26.86-117.356 50.556c-26.752 20.625-52.02 40.11-85.31 40.11-5.89 0-10.668 4.775-10.668 10.666 0 124.545 15.51 207.475 50.294 268.894 34.538 60.988 85.95 98.917 157.706 140.345 1.65.96 3.49 1.43 5.333 1.43 1.84 0 3.68-.47 5.33-1.43 71.75-41.42 123.17-79.35 157.71-140.34 34.78-61.42 50.29-144.35 50.29-268.89 0-5.89-4.78-10.66-10.67-10.66zM256 489C127.334 413.973 65.72 349.338 64.036 111.463c35.144-3.54 61.79-24.086 87.636-44.013C181.077 44.78 211.485 21.333 256 21.333c44.514 0 74.92 23.444 104.328 46.117 25.844 19.928 52.492 40.47 87.636 44.013C446.28 349.338 384.666 413.973 256 489z" fill="#60646b"/><path d="M129.97 121.822c-2.746-5.213-9.196-7.213-14.41-4.468-1.324.698-2.668 1.383-4.016 2.048-5.285 2.602-7.46 8.996-4.86 14.282 1.857 3.77 5.643 5.956 9.58 5.956 1.58 0 3.188-.352 4.703-1.098 1.523-.75 3.038-1.523 4.533-2.31 5.214-2.747 7.214-9.197 4.47-14.41zm281.614 83.644c.327.03.654.044.977.044 5.46 0 10.11-4.162 10.61-9.702.13-1.362.25-2.73.36-4.092.5-5.87-3.86-11.032-9.73-11.53-5.86-.505-11.03 3.858-11.52 9.73-.11 1.317-.22 2.64-.35 3.96-.53 5.868 3.8 11.057 9.66 11.59zm-260.53-87.338c2.16 0 4.345-.656 6.233-2.02 6.18-4.462 12.198-9.043 18.017-13.476 27.227-20.73 50.74-38.634 80.696-38.634 5.89 0 10.667-4.776 10.667-10.667 0-5.88-4.776-10.66-10.667-10.66-37.154 0-64.582 20.89-93.62 43-5.714 4.35-11.622 8.85-17.58 13.15-4.78 3.45-5.853 10.12-2.405 14.9 2.085 2.89 5.348 4.43 8.658 4.43zM256 439.29c-27.298-16.832-60.27-39.433-84.99-68.58-3.81-4.493-10.543-5.044-15.035-1.236-4.494 3.81-5.047 10.542-1.237 15.036 28.402 33.49 66.08 58.423 95.73 76.405.054.03.112.054.166.085.256.148.518.277.785.404.17.08.34.17.51.242.24.098.48.175.73.256.2.068.41.146.61.2.22.06.45.095.67.14.22.045.45.1.68.13.32.042.64.052.97.065.12.004.25.025.37.025h.02c.12 0 .25-.02.37-.025.32-.013.65-.022.97-.065.23-.03.45-.085.67-.13.23-.043.46-.078.68-.14.2-.053.41-.13.61-.197.24-.08.49-.158.73-.258.17-.07.34-.16.51-.242.26-.127.53-.256.78-.404.06-.03.11-.05.17-.08 29.65-17.98 67.32-42.91 95.73-76.4 32.39-38.2 52.8-89.89 62.41-158.04.82-5.83-3.24-11.23-9.08-12.05-5.84-.82-11.23 3.24-12.05 9.07-9.03 64.04-27.86 112.19-57.56 147.23-24.72 29.15-57.69 51.75-84.99 68.58z" fill="#60646b"/><path d="M324.842 133.445L213.567 244.72l-26.404-26.408c-6.53-6.53-15.237-10.125-24.516-10.125-9.28 0-17.987 3.596-24.52 10.127-13.514 13.52-13.514 35.517.003 49.034l50.997 50.99.442.435.19.188.45.42c.08.08.16.15.24.22l.46.4c.07.07.14.13.21.19l.46.39c.05.05.1.09.16.13l.47.38c.08.07.17.14.26.21l.48.37c.07.05.13.1.2.15l.48.35.22.15.49.34c.08.05.15.11.23.16l.5.32c.07.04.13.08.2.12l.51.31.2.12.51.3c.1.06.2.12.3.17l.52.28.16.09.52.27.28.14.53.25.22.11.27.12c.19.09.38.18.58.26l.54.22.15.06.54.21.25.1.55.2c.08.04.17.07.26.1l.27.09c.18.07.36.13.55.19l.55.17.24.06.56.154.23.06.565.147.23.06.565.13.24.05.568.12c.11.023.214.04.322.063l.28.05c.163.04.332.07.504.09l.57.09.255.04.57.07.24.03.27.025c.18.025.36.046.54.06l.58.05c.11.01.22.02.33.02l.27.02c.172.016.35.026.53.03l.58.02.174.005.575.01h.31l.577-.01h.18l.58-.02c.176-.006.355-.017.53-.03l.27-.017.33-.02.57-.05c.18-.02.356-.03.53-.06l.27-.03.24-.027.58-.078c.09-.01.18-.02.27-.04l.57-.09c.18-.024.35-.06.52-.09l.28-.05c.104-.016.21-.036.314-.06l.56-.116.22-.05.57-.13.27-.065.56-.15.22-.06.56-.16.23-.07.56-.17c.18-.05.35-.11.52-.17l.28-.09.293-.1.55-.2c.08-.03.17-.07.25-.1l.54-.21.18-.076.54-.22c.17-.07.34-.15.51-.22l.28-.13.27-.12.53-.25c.07-.035.14-.07.21-.107l.52-.26c.17-.086.34-.176.5-.27l.28-.146c.08-.04.155-.09.23-.13l.515-.29.24-.15.51-.31.232-.15.5-.32c.06-.036.11-.07.164-.11l.5-.336c.086-.06.17-.115.255-.176l.486-.35c.09-.06.17-.12.25-.18l.48-.37.18-.13.47-.38c.125-.1.25-.2.37-.31l.27-.23c.09-.072.19-.15.275-.23l.46-.4c.06-.05.12-.105.18-.16l.45-.42c.07-.06.13-.12.2-.183l.44-.43c.1-.09.19-.19.28-.28L373.86 182.5c13.52-13.52 13.51-35.52-.002-49.03-6.53-6.53-15.233-10.12-24.512-10.12-9.28 0-17.99 3.597-24.52 10.127zm33.95 33.946L222.998 303.18c-.022.026-.048.05-.07.07l-.992.884c-.01.01-.022.018-.035.03l-1.26.897-1.8.94-.01.01-1.19.44-.03.02-1.84.43-.06.02-.92.11-.07.01-.52.03c-.02 0-.04 0-.06.01l-.53.01H213l-.535-.03-.06-.01-.916-.11-.08-.01-1.84-.43h-.01l-1.05-.38-2.01-1.02-1.84-1.39-51.43-51.4c-5.2-5.2-5.2-13.66 0-18.86 2.5-2.5 5.85-3.87 9.43-3.87s6.93 1.38 9.43 3.87l33.94 33.95c2 2.01 4.71 3.13 7.54 3.13s5.54-1.13 7.54-3.13l118.81-118.83c2.5-2.5 5.85-3.87 9.43-3.87s6.93 1.38 9.43 3.88c5.2 5.2 5.2 13.66 0 18.86z" fill="#60646b"/></symbol>
    </defs>
</svg>